<svg width="1512" height="941" viewBox="0 0 1512 941" fill="none" xmlns="http://www.w3.org/2000/svg">
  <g clip-path="url(#clip0_31208_31504)">
    <g filter="url(#filter0_f_31208_31504)">
      <path d="M1748.43 734.814C1923.82 734.814 2066 606.165 2066 447.469C2066 288.772 1923.82 160.124 1748.43 160.124C1573.04 160.124 1430.85 288.772 1430.85 447.469C1430.85 606.165 1573.04 734.814 1748.43 734.814Z" fill="#FBFF3A"/>
    </g>
    <mask id="mask0_31208_31504" style="mask-type:luminance" maskUnits="userSpaceOnUse" x="0" y="0" width="1538" height="941">
      <path d="M0 6.10352e-05L0 941L1537.56 941V6.10352e-05L0 6.10352e-05Z" fill="white"/>
    </mask>
    <g mask="url(#mask0_31208_31504)">
      <path d="M1557.88 942.097H760.142V-2.19336H1557.88V942.097ZM760.952 941.224H1557.07V-1.31981L760.952 -1.31992V941.224ZM1385.35 892.445H1557.48V891.571H1385.35C1270.09 891.868 1157.48 891.877 1041.06 891.571C1031.51 891.571 1022.04 891.571 1012.71 891.571H760.546V892.445H1012.7C1022.03 892.445 1031.51 892.445 1041.05 892.445C1098.76 892.593 1155.53 892.664 1212.16 892.664C1268.79 892.664 1327.21 892.585 1385.34 892.437L1385.35 892.445ZM1384.31 842.959L1390.52 842.924C1397.02 842.889 1403.4 842.854 1409.82 842.794H1557.48V841.92H1409.82C1403.39 841.99 1397.02 842.025 1390.52 842.051L1384.31 842.086C1248.2 842.977 1113.88 842.924 985.089 841.92H760.546V842.794H985.081C1053.28 843.327 1123.03 843.588 1193.78 843.588C1256.63 843.588 1320.27 843.378 1384.31 842.959ZM1432.51 793.22C1445.94 793.168 1459.71 793.142 1474.59 793.142H1557.48V792.268H1474.59C1459.71 792.268 1445.94 792.295 1432.5 792.347C1273.79 795.798 1113.43 794.007 958.355 792.268H760.546V793.141H958.355C1048.81 794.155 1141.06 795.186 1233.74 795.186C1299.95 795.186 1366.37 794.661 1432.51 793.22ZM1474.59 743.481H1557.48V742.608H1474.59C1310.25 745.001 1135.02 746.975 958.363 742.608H760.546V743.481H958.355C1034.54 745.369 1110.45 746.067 1185.34 746.067C1284.12 746.067 1381.13 744.844 1474.6 743.481H1474.59ZM1409.67 694.1C1423.23 693.979 1435.61 693.917 1447.57 693.856L1452.21 693.83H1557.48V692.957H1452.21L1447.57 692.983C1435.61 693.043 1423.23 693.105 1409.66 693.227C1254.08 695.455 1113.7 696.974 970.956 692.974C962.979 692.948 955.115 692.948 947.397 692.948H760.546V693.821H947.388C955.107 693.821 962.97 693.821 970.94 693.847C1035.31 695.647 1099.18 696.328 1164.2 696.328C1243.37 696.328 1324.24 695.315 1409.67 694.1ZM1285.77 644.868C1331.55 643.855 1378.87 642.806 1425.61 644.231C1438.84 644.204 1451.29 644.196 1462.94 644.178H1557.48V643.304H1462.9C1451.28 643.313 1438.84 643.33 1425.62 643.357C1378.88 641.933 1331.54 642.982 1285.76 643.995C1204.87 645.785 1121.23 647.637 1038 635.932C1021.92 633.198 1005.76 635.295 992.086 637.705C989.316 638.098 986.539 638.509 983.752 638.919C978.893 639.635 973.863 640.378 968.891 641.016C959.796 642.186 952.312 642.841 945.347 643.068C939.848 643.27 934.139 643.288 929.546 643.304H760.546V644.178H929.555C934.147 644.161 939.864 644.143 945.379 643.942C952.369 643.715 959.869 643.059 968.988 641.88C973.969 641.234 978.998 640.501 983.858 639.785C986.635 639.373 989.414 638.963 992.199 638.569C1005.82 636.168 1021.9 634.072 1037.88 636.797C1090.6 644.213 1143.46 646.196 1195.69 646.196C1225.98 646.196 1256.06 645.531 1285.76 644.868H1285.77ZM1266.72 595.146C1304.3 593.382 1343.15 591.548 1380.67 594.798C1390.55 594.771 1400.42 594.736 1410.3 594.701C1420.14 594.666 1430.01 594.631 1439.91 594.579C1454.53 594.527 1468.28 594.527 1479.33 594.527H1557.49V593.653H1479.33C1468.28 593.653 1454.53 593.653 1439.91 593.705C1430.01 593.758 1420.14 593.793 1410.3 593.828C1400.42 593.862 1390.55 593.897 1380.7 593.932C1343.17 590.683 1304.3 592.517 1266.69 594.282C1193.84 597.706 1118.5 601.253 1049.98 567.91C1045.54 565.866 1041.12 563.795 1036.71 561.734C1034.2 560.554 1031.7 559.384 1029.2 558.223C1004.92 546.727 985.146 560.851 966.024 574.505C958.824 579.651 951.373 584.961 943.841 588.787C935.345 592.604 926.501 594.064 914.232 593.653H760.546V594.527H914.216C922.436 594.798 933.264 594.492 944.165 589.591C951.769 585.73 959.245 580.393 966.469 575.238C985.413 561.717 1005 547.722 1028.87 559.026C1031.36 560.188 1033.87 561.358 1036.38 562.537C1040.79 564.599 1045.23 566.67 1049.67 568.714C1097.24 591.87 1148.05 597.278 1199.04 597.278C1221.65 597.278 1244.32 596.212 1266.73 595.155L1266.72 595.146ZM1498.44 544.866H1557.48V543.992H1498.42C1408.41 549.915 1313.63 549.915 1208.71 543.992H1159.01C1152.78 543.992 1146.56 543.992 1140.34 543.975C1103.11 544.971 1073.23 525.159 1041.62 504.185C1038.04 501.81 1034.46 499.433 1030.86 497.093C1012.71 485.343 993.358 485.029 977.776 496.236C970.6 501.556 963.845 507.811 957.317 513.864C939.824 530.068 923.302 545.398 899.322 543.913C894.511 543.992 889.716 543.992 885.075 543.992H760.546V544.866H885.067C889.708 544.866 894.511 544.866 899.297 544.787C900.383 544.858 901.46 544.884 902.513 544.884C925.068 544.884 941.007 530.112 957.836 514.52C964.347 508.483 971.086 502.246 978.221 496.952C993.527 485.947 1012.56 486.269 1030.43 497.835C1034.03 500.184 1037.61 502.561 1041.18 504.928C1072.15 525.456 1101.42 544.884 1137.65 544.875C1138.55 544.875 1139.44 544.866 1140.33 544.84C1146.54 544.858 1152.77 544.858 1158.99 544.858H1208.67C1261.14 547.819 1311.08 549.304 1359.16 549.304C1407.24 549.304 1453.43 547.819 1498.43 544.858L1498.44 544.866ZM1494.79 496.149C1501.3 494.874 1507.91 495.004 1514.28 495.136C1516.54 495.18 1518.89 495.231 1521.17 495.214H1557.48V494.341H1521.17C1518.89 494.358 1516.55 494.315 1514.3 494.262C1507.88 494.131 1501.24 493.991 1494.64 495.284C1397.02 512.528 1313.14 519.281 1221.06 496.167C1210.4 493.292 1199.73 493.677 1191.66 494.341H1121.69C1109 495.302 1096.58 491.589 1085.04 487.449C1075.69 484.016 1066.14 479.211 1056.91 474.565C1030.61 461.339 1003.42 447.659 974.6 461.26C968.526 464.169 962.387 467.366 956.451 470.45C934.09 482.076 910.976 494.088 885.877 494.088C885.61 494.088 885.334 494.088 885.067 494.088C875.721 494.35 866.853 494.35 858.268 494.35H760.546V495.223H858.268C866.853 495.223 875.737 495.223 885.075 494.961C910.676 495.189 934.114 483.028 956.807 471.245C962.736 468.161 968.875 464.973 974.932 462.073C1003.42 448.629 1030.44 462.221 1056.58 475.367C1065.82 480.024 1075.4 484.837 1084.79 488.287C1096.4 492.462 1108.92 496.192 1121.72 495.231H1191.7C1199.74 494.577 1210.33 494.193 1220.89 497.04C1262.74 507.549 1302.89 511.89 1343.41 511.89C1392.16 511.89 1441.43 505.592 1494.81 496.167L1494.79 496.149ZM1412.24 473.42C1415.66 472.126 1419.1 470.826 1422.53 469.515C1453.49 457.713 1485.53 445.51 1519.07 445.694C1527.19 445.554 1534.22 445.554 1539.85 445.554H1557.49V444.681H1539.85C1534.22 444.681 1527.19 444.681 1519.07 444.82C1518.81 444.82 1518.57 444.82 1518.3 444.82C1484.88 444.82 1453.04 456.953 1422.26 468.685C1418.83 469.996 1415.41 471.297 1411.98 472.581C1373.31 486.182 1334.96 487.064 1298.03 475.202C1288.27 472.109 1278.51 468.624 1269.08 465.252C1237.46 453.957 1207.61 443.291 1174.58 444.681H1121.71C1115.51 444.681 1109.32 444.681 1103.15 444.672C1101.36 444.654 1099.52 444.689 1097.74 444.716C1090.95 444.82 1083.91 444.934 1076.9 442.872C1071.01 441.44 1065.11 439.902 1059.42 438.417C1033.27 431.594 1008.58 425.148 982.011 428.014C968.607 429.778 955.447 432.713 942.715 435.551C923.213 439.902 904.788 444.007 885.205 444.41C875.632 444.681 866.407 444.681 858.276 444.681H760.546V445.554H858.268C866.407 445.554 875.632 445.554 885.213 445.283C904.869 444.881 924.185 440.574 942.869 436.408C955.584 433.569 968.738 430.642 982.092 428.887C1008.51 426.039 1033.15 432.469 1059.22 439.274C1064.92 440.759 1070.81 442.295 1076.7 443.729C1083.8 445.816 1090.88 445.703 1097.74 445.598C1099.52 445.571 1101.35 445.536 1103.13 445.554C1109.31 445.562 1115.5 445.562 1121.7 445.562H1174.59C1207.46 444.183 1237.26 454.822 1268.81 466.091C1278.26 469.463 1288.02 472.957 1297.79 476.05C1315.07 481.596 1332.65 484.374 1350.42 484.374C1370.82 484.374 1391.48 480.723 1412.24 473.42ZM1442.79 422.649C1456.67 414.98 1471.03 407.048 1485.11 400.925C1492.5 398.471 1499.75 397.763 1507.43 397.012C1510.53 396.706 1513.73 396.4 1516.87 395.964C1525.44 395.911 1532.85 395.911 1538.82 395.911H1557.47V395.038H1538.82C1532.85 395.038 1525.44 395.038 1516.82 395.098C1513.64 395.536 1510.44 395.85 1507.35 396.147C1499.97 396.863 1492.34 397.614 1484.83 400.104C1470.68 406.253 1456.31 414.194 1442.4 421.873C1398.48 446.139 1353.05 471.236 1302.91 448.149C1290.19 442.269 1277.78 435.106 1265.77 428.179C1240.5 413.609 1214.38 398.54 1184.7 395.274C1175.59 395.038 1166.37 395.038 1157.44 395.038H1084.69C1075.78 394.758 1066.85 394.435 1057.9 394.12C1005.85 392.277 952.029 390.372 899.41 394.968C894.648 395.029 890.096 395.038 885.059 395.038H760.546V395.911H885.067C890.104 395.911 894.664 395.911 899.459 395.841C952.061 391.247 1005.85 393.15 1057.88 394.994C1066.83 395.308 1075.76 395.631 1084.69 395.911H1157.46C1166.37 395.911 1175.6 395.911 1184.67 396.147C1214.15 399.396 1240.21 414.422 1265.41 428.957C1277.42 435.893 1289.85 443.055 1302.62 448.952C1316.74 455.451 1330.48 458.167 1343.92 458.167C1378.5 458.167 1411.04 440.191 1442.79 422.649ZM1412.37 404.332C1446.14 372.57 1479.97 344.233 1522.06 346.26H1557.48V345.385H1522.08C1479.68 343.342 1445.74 371.793 1411.83 403.686C1355.53 459.024 1294.79 415.189 1241.2 376.519C1233.98 371.312 1227.16 366.395 1220.37 361.713C1205.39 351.265 1189.72 345.91 1173.79 345.805C1165.55 345.421 1157.71 345.394 1148.33 345.394H1030.35C1002.4 345.054 973.815 345.054 945.371 345.394H760.546V346.268H945.387C973.831 345.927 1002.42 345.927 1030.36 346.268H1148.34C1157.72 346.268 1165.55 346.295 1173.78 346.678C1189.57 346.784 1205.1 352.094 1219.94 362.455C1226.72 367.137 1233.54 372.046 1240.75 377.252C1276.27 402.882 1314.9 430.765 1353.38 430.765C1373.22 430.765 1393.05 423.34 1412.36 404.349L1412.37 404.332ZM1423.75 345.526C1432.6 336.065 1440.96 327.12 1449.61 319.616C1468.5 303.875 1488.48 296.154 1509.07 296.643C1519.23 296.599 1528 296.599 1535.17 296.599H1557.48V295.725H1535.17C1527.99 295.725 1519.23 295.725 1509.07 295.769C1508.44 295.752 1507.81 295.743 1507.18 295.743C1487.1 295.743 1467.56 303.535 1449.1 318.927C1440.41 326.466 1432.03 335.418 1423.17 344.896C1394.44 375.619 1364.74 407.389 1323.98 388.748C1301.76 378.563 1283.56 363.198 1264.29 346.923C1255.68 339.655 1246.78 332.135 1237.39 325.023C1211.41 305.404 1186.5 296.101 1159.02 295.76C1149.05 295.725 1139.08 295.725 1129.16 295.725H760.546V296.599H1129.16C1139.08 296.599 1149.05 296.599 1159.02 296.634C1186.33 296.974 1211.08 306.225 1236.94 325.74C1246.31 332.833 1255.2 340.346 1263.8 347.613C1283.11 363.922 1301.36 379.332 1323.67 389.561C1332.24 393.483 1340.31 395.204 1347.99 395.204C1377.3 395.204 1400.84 370.037 1423.76 345.526H1423.75ZM1409.09 294.747C1419.06 284.841 1429.37 274.603 1439.86 267.222C1452.95 258.146 1463.86 252.983 1475.26 250.476C1487.37 247.62 1498.67 247.087 1509.06 246.947H1557.48V246.074H1509.06C1498.62 246.213 1487.27 246.746 1475.1 249.621C1463.61 252.154 1452.6 257.351 1439.42 266.488C1428.87 273.913 1418.54 284.178 1408.54 294.11C1380.6 321.844 1351.73 350.523 1312.71 325.015C1301.86 317.73 1291.13 309.737 1280.76 301.997C1244.47 274.962 1206.95 247.008 1160.4 247.008C1159.97 247.008 1159.52 247.008 1159.07 247.008C1153.23 246.746 1147.31 246.589 1141.57 246.432C1137.51 246.327 1133.3 246.213 1129.16 246.065H760.546V246.939H1129.14C1133.26 247.087 1137.48 247.2 1141.54 247.305C1147.27 247.453 1153.19 247.611 1159.05 247.882C1159.51 247.882 1159.98 247.882 1160.43 247.882C1206.68 247.882 1242.45 274.524 1280.29 302.714C1290.67 310.453 1301.41 318.455 1312.28 325.757C1323.12 332.851 1333.18 335.821 1342.67 335.821C1367.73 335.821 1388.66 315.039 1409.09 294.756V294.747ZM1359.6 241.059C1372.22 236.238 1384.48 230.14 1396.35 224.244C1421.97 211.517 1446.17 199.496 1474.72 198.396C1487.1 197.557 1498.43 197.418 1508.44 197.295H1557.49V196.413H1508.43C1498.42 196.544 1487.07 196.684 1474.68 197.522C1445.99 198.623 1420.59 211.246 1396.02 223.449C1384.17 229.336 1371.91 235.425 1359.34 240.23C1344.91 245.419 1330.29 245.419 1315.85 240.23C1300.57 235.417 1285.43 229.486 1270.78 223.746C1235.22 209.831 1198.44 195.435 1159.02 197.024C1156.53 196.982 1154.05 196.938 1151.57 196.903C1144.24 196.78 1136.64 196.658 1129.17 196.422H760.546V197.295H1129.15C1136.6 197.531 1144.2 197.654 1151.55 197.776C1154.03 197.819 1156.52 197.855 1159.02 197.898C1198.32 196.317 1233.38 210.04 1270.49 224.568C1285.16 230.306 1300.32 236.247 1315.6 241.059C1322.9 243.681 1330.25 244.99 1337.61 244.99C1344.95 244.99 1352.3 243.681 1359.61 241.051L1359.6 241.059ZM1346.54 162.467C1362.07 160.887 1377.73 158.353 1392.87 155.908C1419.54 151.592 1447.13 147.128 1474.6 147.818C1485.75 147.74 1496 147.696 1505.18 147.661L1509.07 147.644H1557.49V146.771H1509.07L1505.18 146.788C1496 146.822 1485.75 146.866 1474.61 146.945C1447.09 146.264 1419.46 150.728 1392.76 155.042C1377.62 157.489 1361.97 160.022 1346.49 161.594C1335.12 162.467 1323.09 162.467 1311.72 161.594C1293.35 160.022 1274.78 157.384 1256.84 154.842C1224.93 150.317 1191.95 145.635 1159.02 146.771H760.546V147.644H1159.03C1191.91 146.517 1224.85 151.191 1256.71 155.707C1274.68 158.257 1293.26 160.896 1311.65 162.467C1317.35 162.905 1323.23 163.123 1329.09 163.123C1334.95 163.123 1340.84 162.905 1346.54 162.46V162.467ZM1432.96 98.1316C1446.74 98.0362 1460.74 97.9923 1474.6 97.9923H1557.49V97.1182H1474.6C1460.74 97.1182 1446.74 97.1621 1432.95 97.2586C1348.55 100.01 1280.44 100.045 1218.58 97.354L1208.49 97.2762C1201.97 97.2323 1195.42 97.1797 1188.87 97.1182H760.546V97.9923H1188.87C1195.41 98.0537 1201.95 98.1053 1208.48 98.1492L1218.56 98.2281C1249.14 99.5563 1281.25 100.22 1316.09 100.22C1350.94 100.22 1390.27 99.5212 1432.96 98.1316ZM1351.76 48.3321H1557.48V47.458H1351.76C1327.88 47.458 1302.79 47.458 1276.96 47.458H760.546V48.3321H1276.96C1289.86 48.3321 1302.6 48.3321 1315.09 48.3321C1327.58 48.3321 1339.82 48.3321 1351.76 48.3321ZM1511.01 534.104C1511.32 450.385 1511.32 365.485 1511.01 281.766V-1.75664H1510.2V281.766C1510.51 365.485 1510.51 450.376 1510.2 534.095V941.66H1511.01V534.104ZM1464.13 597.191C1465.97 447.153 1465.97 295.28 1464.13 145.801V-1.75664H1463.32V145.801C1465.15 295.28 1465.15 447.144 1463.32 597.182V941.66H1464.13V597.191ZM1417.25 859.435C1416.56 782.433 1416.56 704.566 1417.25 628C1417.29 620.225 1417.17 612.276 1417.04 604.589C1416.96 599.559 1416.88 594.342 1416.85 589.233C1416.78 578.532 1416.86 564.495 1418.18 550.789C1426.49 442.689 1423.38 334.266 1420.38 229.415C1418.97 180.751 1417.54 130.435 1417.25 80.6266V-1.75664H1416.43V80.6354C1416.73 130.452 1418.17 180.777 1419.56 229.442C1422.56 334.274 1425.67 442.671 1417.37 550.71C1416.05 564.451 1415.97 578.514 1416.03 589.242C1416.07 594.36 1416.15 599.567 1416.22 604.607C1416.34 612.285 1416.47 620.234 1416.42 627.991C1415.74 704.566 1415.74 782.442 1416.42 859.443V941.66H1417.24V859.435H1417.25ZM1370.37 893.807L1370.33 891.458C1370.16 881.998 1369.95 871.271 1369.48 859.548C1368.57 846.698 1367.41 833.665 1366.3 821.06C1362.59 779.201 1358.75 735.908 1363.11 692.318C1367.88 649.481 1369.5 608.546 1371 563.306C1371.35 552.518 1371.83 541.668 1372.43 531.064C1374.3 497.861 1377.35 466.039 1381.74 433.762C1386.12 399.108 1384.56 364.656 1383.05 331.34C1382.88 327.601 1382.72 323.862 1382.55 320.114C1381.33 300.224 1379.94 279.994 1378.6 260.426C1374.57 201.785 1370.4 141.153 1370.37 81.2726L1370.39 -1.75664H1369.58L1369.56 81.2726C1369.59 141.18 1373.75 201.838 1377.8 260.487C1379.14 280.045 1380.53 300.277 1381.75 320.158C1381.91 323.897 1382.09 327.636 1382.25 331.375C1383.75 364.656 1385.32 399.064 1380.95 433.63C1376.56 465.924 1373.51 497.782 1371.63 531.003C1371.03 541.617 1370.55 552.474 1370.2 563.263C1368.71 608.486 1367.09 649.393 1362.32 692.205C1357.95 735.891 1361.8 779.227 1365.51 821.13C1366.63 833.735 1367.79 846.76 1368.69 859.583C1369.16 871.288 1369.36 882.007 1369.54 891.458L1369.58 893.799V941.643H1370.39V893.79L1370.37 893.807ZM1323.49 919.717C1325.56 882.504 1316.13 849.284 1306.14 814.115C1300.91 795.692 1295.51 776.65 1291.83 756.821C1285.36 724.473 1295.39 694.764 1305.08 666.025C1308.7 655.263 1312.45 644.143 1315.31 632.988C1320.2 614.548 1321.42 595.382 1322.61 576.846C1323 570.766 1323.41 564.486 1323.93 558.336C1324.57 546.063 1325.31 534.715 1326.16 523.639C1328.58 490.437 1332.45 456.184 1338 418.928C1341.24 400.532 1340.42 381.856 1339.63 363.791C1337.86 329.496 1335.2 294.773 1332.63 261.186C1328.11 202.459 1323.45 141.73 1323.5 81.753C1323.5 68.1962 1323.5 56.4293 1323.5 46.0783V-1.75664H1322.69V46.0871C1322.69 56.4293 1322.69 68.205 1322.69 81.7617C1322.65 141.774 1327.31 202.519 1331.82 261.265C1334.39 294.843 1337.06 329.566 1338.82 363.844C1339.62 381.856 1340.44 400.48 1337.21 418.789C1331.66 456.08 1327.79 490.358 1325.36 523.578C1324.5 534.655 1323.76 546.01 1323.12 558.275C1322.6 564.416 1322.19 570.706 1321.8 576.785C1320.61 595.278 1319.39 614.391 1314.54 632.744C1311.68 643.863 1307.93 654.974 1304.31 665.719C1294.59 694.572 1284.53 724.412 1291.04 756.995C1294.73 776.859 1300.14 795.928 1305.38 814.369C1315.34 849.459 1324.75 882.609 1322.69 919.69V941.66H1323.5V919.717H1323.49ZM1276.34 916.974C1276.44 889.475 1267.97 861.609 1250.47 831.796C1249.21 829.603 1247.94 827.393 1246.66 825.166C1224.46 786.634 1199.3 742.966 1222.94 697.709C1227.8 688.117 1233.14 678.456 1238.29 669.118C1258.99 631.616 1280.4 592.841 1276.74 547.539C1276.85 538.698 1277.03 530.619 1277.28 522.826C1278.16 495.319 1280.01 471.035 1282.92 448.594C1292.11 374.579 1287.09 300.643 1282.24 229.136C1278.96 180.777 1275.56 130.776 1276.61 81.2638L1276.62 -1.7653H1275.82L1275.8 81.255C1274.75 130.802 1278.15 180.83 1281.44 229.206C1286.29 300.669 1291.3 374.562 1282.13 448.48C1279.21 470.956 1277.36 495.267 1276.48 522.8C1276.22 530.592 1276.06 538.681 1275.94 547.574C1279.59 592.639 1258.24 631.294 1237.61 668.672C1232.45 678.019 1227.11 687.68 1222.25 697.289C1198.36 742.983 1223.67 786.896 1245.98 825.629C1247.26 827.848 1248.54 830.057 1249.8 832.259C1267.22 861.933 1275.65 889.641 1275.54 916.974C1275.82 932.671 1275.82 941.564 1275.82 941.651H1276.63C1276.63 941.564 1276.63 932.663 1276.35 916.965L1276.34 916.974ZM1229.72 923.762C1230.27 910.816 1227.99 897.826 1222.97 885.16C1216.47 866.082 1205.44 847.414 1194.78 829.359C1172.15 791.002 1148.74 751.344 1166.27 704.653C1173.47 684.867 1184.15 666.689 1194.47 649.122C1209.5 623.519 1225.05 597.043 1229.31 565.91C1230.08 552.422 1230.43 539.057 1230.77 525.404C1233.89 389.272 1233.54 243.785 1229.72 80.6354V-1.75664H1228.92V80.6442C1232.74 243.794 1233.08 389.272 1229.96 525.386C1229.63 539.031 1229.26 552.396 1228.49 565.822C1224.26 596.737 1209.46 621.955 1193.78 648.659C1183.43 666.27 1172.74 684.474 1165.51 704.339C1147.82 751.448 1171.34 791.299 1194.09 829.839C1204.72 847.86 1215.72 866.483 1222.2 885.501C1227.19 898.062 1229.45 910.93 1228.9 923.753C1228.91 935.353 1228.91 941.669 1228.91 941.669H1229.71C1229.71 941.669 1229.71 935.353 1229.71 923.77L1229.72 923.762ZM1182.85 923.114C1183.24 912.327 1181.58 900.831 1177.62 886.916C1171.66 868.728 1163.3 851.748 1155.21 835.325C1143.51 811.555 1131.39 786.974 1126.62 758.585C1120.41 715.965 1137.85 679.826 1154.72 644.877C1162.03 629.756 1169.58 614.12 1175.19 598.056C1178.8 586.402 1182.49 572.531 1182.65 557.969C1182.71 552.003 1182.74 546.028 1182.78 540.027C1182.8 536.279 1182.83 532.531 1182.86 528.775V437.823C1183.32 333.375 1183.32 227.223 1182.86 122.32V-1.75664H1182.05V122.329C1182.51 227.232 1182.51 333.375 1182.05 437.823V528.775C1182.02 532.531 1182 536.279 1181.97 540.027C1181.93 546.028 1181.9 552.003 1181.84 557.969C1181.68 572.418 1178.01 586.21 1174.43 597.776C1168.85 613.77 1161.31 629.38 1154.01 644.484C1137.08 679.557 1119.57 715.826 1125.82 758.742C1130.63 787.272 1142.76 811.914 1154.51 835.744C1162.58 852.14 1170.93 869.096 1176.86 887.204C1180.8 900.997 1182.45 912.406 1182.06 923.106V941.669H1182.87V923.123L1182.85 923.114ZM1135.97 924.74C1135.87 921.612 1135.83 918.511 1135.8 915.506C1135.68 905.539 1135.58 896.131 1133.09 886.077C1129.16 869.733 1124.15 853.425 1119.31 837.666C1103.74 786.957 1089.03 739.061 1105.55 686.291C1107.63 679.67 1109.83 672.935 1111.96 666.418C1123.92 629.782 1136.29 591.897 1135.97 552.798V532.218V-1.7653H1135.17V552.798C1135.47 591.74 1123.13 629.555 1111.19 666.122C1109.05 672.637 1106.86 679.381 1104.78 686.003C1088.17 739.052 1102.92 787.088 1118.54 837.936C1123.37 853.687 1128.37 869.978 1132.31 886.296C1134.77 896.245 1134.88 905.609 1134.99 915.515C1135.02 918.52 1135.06 921.629 1135.17 924.749V941.651H1135.97V924.731V924.74ZM1089.11 922.583C1090.3 890.646 1085.1 858.657 1080.08 827.733C1077.16 809.748 1074.14 791.151 1072.36 772.579C1067.88 733.313 1073.19 694.546 1078.34 657.054C1080.63 640.325 1083.01 623.03 1084.5 605.821L1084.61 604.267C1085.39 593.566 1086.11 583.45 1085.68 572.889C1085.62 559.917 1085.61 549.408 1085.66 539.826C1085.84 500.106 1086.94 458.124 1089.11 407.687V-1.75664H1088.3V407.66C1086.13 458.098 1085.04 500.089 1084.85 539.817C1084.81 549.399 1084.81 559.908 1084.87 572.907C1085.3 583.432 1084.57 593.522 1083.81 604.197L1083.7 605.743C1082.21 622.916 1079.84 640.204 1077.54 656.915C1072.4 694.468 1067.06 733.296 1071.56 772.666C1073.33 791.255 1076.35 809.87 1079.28 827.874C1084.29 858.761 1089.48 890.698 1088.29 922.556V941.651H1089.11V922.574V922.583ZM1042.22 913.724C1042.22 904.753 1042.22 893.807 1042.18 881.141C1041.8 871.376 1041.39 861.636 1041 851.896C1038.29 786.232 1035.51 718.341 1038.34 651.228C1039.25 629.695 1037.98 610.022 1034.58 592.806C1033.51 584.41 1032.39 575.842 1031.3 567.551L1030.78 563.594C1029.61 554.693 1028.25 544.333 1027 534.087C1022.73 504.133 1029.68 477.202 1037.04 448.682C1038.02 444.908 1039 441.116 1039.95 437.299C1044.86 416.692 1043.89 396.12 1042.96 376.221C1042.49 366.472 1042.01 356.401 1042.23 346.381V-1.75664H1041.41V346.373C1041.21 356.41 1041.69 366.507 1042.15 376.265C1043.08 396.103 1044.05 416.614 1039.17 437.08C1038.21 440.889 1037.24 444.681 1036.26 448.455C1028.88 477.062 1021.9 504.081 1026.21 534.217C1027.46 544.464 1028.82 554.816 1029.99 563.726L1030.51 567.683C1031.6 575.972 1032.73 584.542 1033.78 592.963C1037.18 610.145 1038.45 629.73 1037.53 651.193C1034.71 718.349 1037.49 786.258 1040.19 851.94C1040.59 861.671 1041 871.419 1041.37 881.168C1041.41 893.816 1041.41 904.762 1041.41 913.733V941.669H1042.23V913.733L1042.22 913.724ZM995.341 875.586C995.341 865.243 995.341 853.852 995.326 841.545C994.718 814.281 994.864 786.529 995.002 759.703C995.212 718.699 995.431 676.307 992.977 634.561C992.442 630.245 991.899 625.938 991.357 621.65C990.418 614.199 989.446 606.485 988.539 598.947C981.784 542.953 976.625 483.273 993.77 423.358C999.246 404.979 997.869 385.219 996.532 366.106C996.079 359.633 995.617 352.951 995.415 346.373C995.35 339.891 995.342 333.47 995.342 326.343V-1.75664H994.532V326.334C994.532 333.462 994.533 339.891 994.605 346.381C994.808 352.986 995.277 359.686 995.731 366.167C997.124 386.067 998.436 404.865 993.001 423.087C975.807 483.177 980.975 542.961 987.737 599.052C988.644 606.598 989.616 614.303 990.555 621.763C991.098 626.061 991.64 630.359 992.175 634.647C994.621 676.333 994.402 718.717 994.192 759.703C994.054 786.538 993.909 814.29 994.516 841.562C994.532 853.852 994.532 865.243 994.532 875.595V941.669H995.341V875.595V875.586ZM948.466 672.079C949.672 645.069 947.817 617.579 946.02 590.997C944.222 564.354 942.367 536.812 943.582 509.724C944.254 494.716 945.258 479.447 946.222 464.675C948.757 426.066 951.373 386.136 948.466 346.39V-1.75664H947.656V346.416C950.563 386.136 947.947 426.031 945.42 464.606C944.448 479.377 943.453 494.656 942.78 509.671C941.565 536.812 943.42 564.389 945.218 591.059C947.007 617.614 948.862 645.077 947.664 672.062V941.66H948.474V672.079H948.466ZM901.589 573.255L901.548 552.737C901.524 533.161 901.711 513.297 901.897 494.079C902.229 459.05 902.577 422.825 901.621 387.071C901.589 380.248 901.589 373.434 901.589 366.648V-1.75664H900.779V366.648C900.779 373.434 900.779 380.248 900.811 387.08C901.759 422.825 901.419 459.041 901.087 494.07C900.901 513.288 900.714 533.161 900.738 552.737L900.779 573.255V941.66H901.589V573.255ZM854.704 -1.75664H853.894V941.66H854.704V-1.75664ZM807.828 -1.75664H807.018V941.66H807.828V-1.75664Z" fill="url(#paint0_linear_31208_31504)" fill-opacity="0.4"/>
      <path d="M-449.175 -1.09668H347.551V942.097H-449.175V-1.09668ZM346.742 -0.224115L-448.366 -0.224224V941.224L346.742 941.225V-0.224115ZM-276.855 48.4976H-448.77V49.3695H-276.855C-161.747 49.0734 -49.275 49.0647 66.9904 49.3695C76.535 49.3695 85.9825 49.3695 95.3085 49.3695H347.147V48.4976H95.3167C85.9905 48.4976 76.535 48.4976 66.9985 48.4976C9.36732 48.3485 -47.3337 48.2794 -103.889 48.2794C-160.445 48.2794 -218.796 48.3573 -276.847 48.5064L-276.855 48.4976ZM-275.82 97.9254L-282.024 97.9605C-288.52 97.9956 -294.885 98.0307 -301.299 98.091H-448.77V98.964H-301.299C-294.877 98.8938 -288.52 98.8587 -282.024 98.8335L-275.82 98.7984C-139.884 97.9078 -5.74217 97.9605 122.891 98.964H347.147V98.091H122.899C54.7847 97.5591 -14.8742 97.2969 -85.5279 97.2969C-148.304 97.2969 -211.863 97.5064 -275.82 97.9254ZM-323.964 147.606C-337.374 147.659 -351.125 147.685 -365.992 147.685H-448.77V148.557H-365.992C-351.117 148.557 -337.366 148.532 -323.948 148.479C-165.436 145.032 -5.28918 146.821 149.591 148.558H347.147V147.685H149.591C59.2497 146.673 -32.8794 145.643 -125.445 145.643C-191.569 145.643 -257.912 146.168 -323.964 147.606ZM-365.992 197.288H-448.77V198.161H-365.992C-201.858 195.77 -26.8535 193.798 149.583 198.161H347.147V197.289H149.591C73.4936 195.403 -2.30454 194.706 -77.1077 194.706C-175.757 194.706 -272.649 195.926 -366 197.288H-365.992ZM-301.145 246.612C-314.694 246.734 -327.053 246.794 -339.008 246.856L-343.627 246.882H-448.77V247.755H-343.627L-339.008 247.729C-327.053 247.667 -314.694 247.606 -301.137 247.484C-145.763 245.259 -5.55609 243.741 137.005 247.737C144.972 247.764 152.827 247.764 160.535 247.764H347.147V246.891H160.543C152.835 246.891 144.981 246.891 137.021 246.864C72.7334 245.067 8.94672 244.387 -55.9885 244.387C-135.063 244.387 -215.828 245.399 -301.145 246.612ZM-177.406 295.787C-223.123 296.799 -270.393 297.846 -317.072 296.424C-330.289 296.45 -342.72 296.459 -354.344 296.476H-448.77V297.348H-354.312C-342.712 297.34 -330.281 297.322 -317.08 297.296C-270.401 298.718 -223.115 297.672 -177.39 296.66C-96.6093 294.871 -13.0785 293.021 70.048 304.713C86.1038 307.444 102.249 305.35 115.902 302.942C118.668 302.549 121.443 302.139 124.225 301.729C129.079 301.014 134.102 300.271 139.068 299.635C148.151 298.466 155.626 297.811 162.582 297.584C168.073 297.383 173.775 297.366 178.362 297.348H347.147V296.476H178.354C173.768 296.494 168.057 296.511 162.549 296.712C155.569 296.938 148.079 297.593 138.971 298.771C133.996 299.417 128.973 300.149 124.12 300.864C121.346 301.275 118.572 301.685 115.789 302.077C102.184 304.477 86.128 306.571 70.1692 303.849C17.5125 296.441 -35.2817 294.461 -87.4449 294.461C-117.696 294.461 -147.737 295.124 -177.398 295.787H-177.406ZM-158.39 345.45C-195.913 347.213 -234.722 349.045 -272.189 345.8C-282.056 345.826 -291.909 345.86 -301.776 345.895C-311.613 345.93 -321.464 345.966 -331.349 346.018C-345.956 346.07 -359.682 346.07 -370.724 346.07H-448.778V346.943H-370.724C-359.69 346.943 -345.956 346.943 -331.349 346.89C-321.464 346.837 -311.613 346.803 -301.776 346.768C-291.909 346.733 -282.056 346.698 -272.22 346.663C-234.739 349.909 -195.914 348.077 -158.358 346.314C-85.5928 342.894 -10.3446 339.352 58.0767 372.656C62.5175 374.698 66.9339 376.765 71.334 378.825C73.8415 380.003 76.3409 381.172 78.8402 382.332C103.081 393.814 122.834 379.706 141.931 366.069C149.122 360.929 156.564 355.625 164.086 351.802C172.571 347.99 181.403 346.533 193.658 346.943H347.147V346.07H193.674C185.464 345.8 174.649 346.105 163.763 351C156.167 354.857 148.701 360.187 141.487 365.335C122.568 378.842 103.001 392.819 79.1637 381.529C76.6725 380.369 74.165 379.2 71.6576 378.022C67.2573 375.962 62.8329 373.895 58.4003 371.853C10.888 348.723 -39.8598 343.321 -90.7856 343.321C-113.377 343.321 -136.009 344.386 -158.398 345.441L-158.39 345.45ZM-389.813 395.673H-448.77V396.545H-389.788C-299.884 390.63 -205.239 390.63 -100.443 396.545H-50.8118C-44.5917 396.545 -38.3796 396.545 -32.1676 396.562C5.01563 395.568 34.8544 415.357 66.4323 436.306C70.0074 438.679 73.5826 441.053 77.182 443.391C95.3086 455.126 114.632 455.441 130.194 444.246C137.361 438.933 144.107 432.686 150.627 426.638C168.098 410.454 184.598 395.141 208.549 396.624C213.354 396.545 218.142 396.545 222.776 396.545H347.147V395.673H222.784C218.15 395.673 213.354 395.673 208.573 395.752C207.489 395.682 206.414 395.655 205.362 395.655C182.835 395.655 166.917 410.41 150.108 425.985C143.606 432.013 136.876 438.243 129.75 443.53C114.462 454.524 95.4542 454.201 77.6107 442.649C74.0194 440.302 70.4362 437.929 66.8691 435.565C35.9464 415.06 6.70617 395.655 -29.4822 395.664C-30.3719 395.664 -31.2616 395.673 -32.1595 395.699C-38.3635 395.682 -44.5755 395.682 -50.7957 395.682H-100.403C-152.817 392.724 -202.692 391.24 -250.705 391.24C-298.719 391.24 -344.848 392.724 -389.796 395.682L-389.813 395.673ZM-386.156 444.333C-392.668 445.607 -399.261 445.476 -405.626 445.345C-407.89 445.301 -410.229 445.25 -412.501 445.266H-448.77V446.139H-412.501C-410.236 446.122 -407.898 446.166 -405.642 446.218C-399.228 446.349 -392.603 446.488 -386.019 445.197C-288.52 427.973 -204.746 421.229 -112.787 444.315C-102.134 447.187 -91.4812 446.803 -83.425 446.139H-13.5314C-0.864765 445.18 11.5432 448.888 23.0694 453.023C32.4036 456.453 41.9401 461.251 51.1611 465.894C77.4247 479.103 104.586 492.767 133.365 479.182C139.432 476.277 145.563 473.083 151.492 470.003C173.824 458.39 196.909 446.393 221.975 446.393C222.243 446.393 222.518 446.393 222.784 446.393C232.119 446.131 240.976 446.13 249.55 446.13H347.147V445.259H249.55C240.976 445.259 232.103 445.259 222.776 445.52C197.209 445.293 173.8 457.439 151.136 469.209C145.215 472.289 139.084 475.474 133.034 478.37C104.586 491.799 77.5946 478.222 51.4927 465.091C42.2556 460.44 32.6948 455.633 23.3201 452.186C11.7211 448.016 -0.783874 444.289 -13.5638 445.25H-83.4654C-91.4894 445.903 -102.061 446.287 -112.609 443.443C-154.411 432.947 -194.506 428.61 -234.972 428.61C-283.658 428.61 -332.869 434.901 -386.172 444.315L-386.156 444.333ZM-303.717 467.037C-307.139 468.327 -310.561 469.628 -313.991 470.937C-344.912 482.724 -376.912 494.913 -410.415 494.73C-418.527 494.869 -425.532 494.869 -431.161 494.869H-448.778V495.742H-431.161C-425.532 495.742 -418.527 495.742 -410.415 495.602C-410.156 495.602 -409.905 495.602 -409.646 495.602C-376.264 495.602 -344.468 483.483 -313.723 471.766C-310.302 470.456 -306.88 469.156 -303.459 467.873C-264.827 454.289 -226.537 453.407 -189.652 465.256C-179.906 468.345 -170.159 471.826 -160.736 475.194C-129.158 486.476 -99.3433 497.13 -66.358 495.742H-13.5557C-7.3599 495.742 -1.18022 495.742 4.9833 495.751C6.76278 495.768 8.59889 495.734 10.3784 495.707C17.1647 495.602 24.1936 495.489 31.1903 497.548C37.0788 498.979 42.9673 500.514 48.6536 501.998C74.7636 508.812 99.4256 515.251 125.964 512.39C139.351 510.627 152.495 507.696 165.21 504.86C184.688 500.514 203.089 496.414 222.647 496.012C232.208 495.743 241.421 495.742 249.542 495.742H347.147V494.869H249.55C241.421 494.869 232.208 494.869 222.639 495.14C203.008 495.542 183.717 499.843 165.056 504.005C152.357 506.84 139.222 509.763 125.884 511.517C99.4985 514.362 74.8929 507.94 48.8558 501.143C43.1614 499.66 37.2729 498.123 31.4007 496.693C24.3069 494.607 17.2294 494.721 10.3784 494.826C8.60698 494.852 6.77086 494.887 4.99946 494.869C-1.17214 494.861 -7.35183 494.861 -13.5477 494.861H-66.3662C-99.1896 496.239 -128.964 485.612 -160.468 474.356C-169.9 470.989 -179.655 467.498 -189.41 464.41C-206.663 458.869 -224.223 456.094 -241.977 456.094C-262.345 456.094 -282.978 459.742 -303.709 467.037H-303.717ZM-334.22 517.747C-348.092 525.408 -362.433 533.33 -376.491 539.446C-383.876 541.899 -391.115 542.605 -398.783 543.355C-401.88 543.661 -405.075 543.966 -408.215 544.402C-416.764 544.455 -424.182 544.455 -430.135 544.455H-448.762V545.327H-430.135C-424.173 545.327 -416.764 545.327 -408.158 545.267C-404.987 544.83 -401.792 544.515 -398.702 544.219C-391.333 543.504 -383.714 542.753 -376.215 540.267C-362.085 534.124 -347.727 526.193 -333.84 518.524C-289.967 494.285 -244.606 469.218 -194.529 492.278C-181.822 498.15 -169.423 505.305 -157.436 512.224C-132.199 526.778 -106.105 541.828 -76.4688 545.091C-67.3691 545.327 -58.1562 545.327 -49.2426 545.327H23.4171C32.3146 545.607 41.2363 545.929 50.1742 546.244C102.16 548.084 155.908 549.987 208.46 545.397C213.215 545.336 217.762 545.327 222.792 545.327H347.147V544.455H222.784C217.754 544.455 213.2 544.455 208.412 544.524C155.876 549.114 102.151 547.212 50.1904 545.371C41.2525 545.057 32.3308 544.734 23.4171 544.455H-49.2588C-58.1644 544.455 -67.3772 544.455 -76.4364 544.219C-105.887 540.973 -131.908 525.966 -157.072 511.448C-169.075 504.52 -181.483 497.365 -194.231 491.475C-208.337 484.983 -222.063 482.27 -235.483 482.27C-270.02 482.27 -302.512 500.227 -334.228 517.747H-334.22ZM-303.848 536.043C-337.576 567.768 -371.355 596.073 -413.399 594.048H-448.77V594.921H-413.416C-371.079 596.962 -337.172 568.545 -303.305 536.689C-247.082 481.415 -186.417 525.199 -132.887 563.825C-125.68 569.025 -118.877 573.938 -112.091 578.614C-97.1351 589.05 -81.4837 594.398 -65.5653 594.502C-57.3393 594.886 -49.5176 594.913 -40.143 594.913H77.6916C105.598 595.253 134.15 595.253 162.557 594.913H347.147V594.04H162.541C134.133 594.381 105.581 594.381 77.6835 594.04H-40.1592C-49.5257 594.04 -57.3394 594.013 -65.5573 593.629C-81.3301 593.525 -96.844 588.22 -111.662 577.873C-118.44 573.195 -125.243 568.292 -132.442 563.092C-167.91 537.492 -206.501 509.641 -244.929 509.641C-264.755 509.641 -284.548 517.058 -303.839 536.027L-303.848 536.043ZM-315.212 594.782C-324.052 604.231 -332.4 613.166 -341.039 620.661C-359.901 636.384 -379.856 644.097 -400.425 643.608C-410.568 643.652 -419.328 643.652 -426.486 643.652H-448.77V644.524H-426.486C-419.32 644.524 -410.568 644.524 -400.425 644.481C-399.794 644.498 -399.171 644.506 -398.54 644.506C-378.481 644.506 -358.971 636.724 -340.529 621.35C-331.85 613.82 -323.486 604.877 -314.637 595.41C-285.947 564.724 -256.278 532.99 -215.568 551.609C-193.381 561.782 -175.199 577.13 -155.955 593.386C-147.357 600.645 -138.468 608.157 -129.093 615.259C-103.137 634.857 -78.2645 644.148 -50.8199 644.49C-40.8629 644.524 -30.9139 644.524 -20.9891 644.524H347.147V643.652H-20.9891C-30.9139 643.652 -40.8629 643.652 -50.8199 643.617C-78.0947 643.277 -102.822 634.037 -128.64 614.544C-137.99 607.459 -146.872 599.955 -155.462 592.696C-174.754 576.406 -192.977 561.015 -215.261 550.798C-223.818 546.88 -231.875 545.161 -239.551 545.161C-268.824 545.161 -292.329 570.299 -315.22 594.782H-315.212ZM-300.563 645.501C-310.52 655.396 -320.825 665.621 -331.3 672.995C-344.371 682.059 -355.274 687.216 -366.663 689.72C-378.748 692.574 -390.031 693.106 -400.417 693.245H-448.77V694.118H-400.417C-389.982 693.979 -378.65 693.446 -366.501 690.576C-355.016 688.045 -344.023 682.853 -330.863 673.727C-320.332 666.311 -310.003 656.059 -300.021 646.138C-272.124 618.435 -243.28 589.791 -204.309 615.268C-193.479 622.545 -182.761 630.529 -172.4 638.259C-136.155 665.264 -98.6881 693.185 -52.203 693.185C-51.7662 693.185 -51.3213 693.185 -50.8765 693.185C-45.0366 693.446 -39.1238 693.604 -33.397 693.76C-29.3366 693.865 -25.1306 693.979 -20.9973 694.127H347.147V693.254H-20.973C-25.0982 693.106 -29.3043 692.993 -33.3647 692.887C-39.0834 692.739 -44.9961 692.583 -50.8522 692.312C-51.3133 692.312 -51.7744 692.312 -52.2273 692.312C-98.4213 692.312 -134.141 665.7 -171.93 637.544C-182.3 629.813 -193.025 621.821 -203.881 614.527C-214.719 607.442 -224.765 604.475 -234.228 604.475C-259.255 604.475 -280.164 625.233 -300.563 645.492V645.501ZM-251.142 699.127C-263.744 703.943 -275.998 710.033 -287.848 715.922C-313.433 728.635 -337.601 740.64 -366.113 741.74C-378.481 742.577 -389.804 742.718 -399.794 742.839H-448.778V743.721H-399.786C-389.788 743.59 -378.456 743.45 -366.081 742.612C-337.423 741.513 -312.057 728.905 -287.517 716.716C-275.683 710.836 -263.444 704.754 -250.884 699.955C-236.477 694.773 -221.869 694.773 -207.448 699.955C-192.192 704.763 -177.066 710.687 -162.435 716.42C-126.926 730.319 -90.1952 744.698 -50.8199 743.11C-48.3367 743.153 -45.8616 743.197 -43.3865 743.232C-36.0501 743.354 -28.463 743.477 -21.0054 743.712H347.147V742.839H-20.9811C-28.4307 742.604 -36.0178 742.482 -43.3622 742.36C-45.8374 742.316 -48.3205 742.281 -50.8199 742.237C-90.0738 743.817 -125.081 730.11 -162.151 715.6C-176.792 709.867 -191.941 703.934 -207.205 699.127C-214.492 696.509 -221.828 695.2 -229.174 695.2C-236.518 695.2 -243.854 696.509 -251.15 699.136L-251.142 699.127ZM-238.103 777.627C-253.609 779.206 -269.244 781.736 -284.369 784.18C-311.014 788.49 -338.563 792.948 -366 792.259C-377.138 792.337 -387.361 792.381 -396.542 792.416L-400.425 792.434H-448.778V793.306H-400.425L-396.542 793.288C-387.361 793.253 -377.138 793.21 -366.008 793.131C-338.523 793.812 -310.933 789.353 -284.257 785.043C-269.147 782.601 -253.52 780.07 -238.046 778.5C-226.69 777.627 -214.678 777.627 -203.322 778.5C-184.977 780.07 -166.439 782.705 -148.506 785.244C-116.645 789.763 -83.7082 794.44 -50.8199 793.306H347.147V792.434H-50.828C-83.6676 793.559 -116.572 788.891 -148.392 784.381C-166.333 781.833 -184.888 779.197 -203.258 777.627C-208.952 777.19 -214.816 776.972 -220.672 776.972C-226.529 776.972 -232.4 777.19 -238.103 777.636V777.627ZM-324.408 841.888C-338.167 841.983 -352.16 842.027 -366 842.027H-448.778V842.9H-366C-352.16 842.9 -338.167 842.856 -324.4 842.761C-240.109 840.013 -172.084 839.977 -110.311 842.664L-100.225 842.743C-93.7138 842.786 -87.1782 842.839 -80.6345 842.9H347.147V842.027H-80.6263C-87.1701 841.967 -93.6975 841.914 -100.217 841.87L-110.287 841.791C-140.822 840.465 -172.885 839.803 -207.69 839.803C-242.496 839.803 -281.774 840.501 -324.408 841.888ZM-243.313 891.63H-448.77V892.502H-243.313C-219.459 892.502 -194.4 892.502 -168.606 892.502H347.147V891.63H-168.606C-181.499 891.63 -194.214 891.63 -206.687 891.63C-219.16 891.63 -231.389 891.63 -243.313 891.63ZM-402.358 406.422C-402.666 490.045 -402.666 574.845 -402.358 658.466V941.66H-401.549V658.466C-401.857 574.845 -401.857 490.054 -401.549 406.431V-0.660393H-402.358V406.422ZM-355.541 343.409C-357.369 493.273 -357.369 644.969 -355.541 794.274V941.66H-354.732V794.274C-356.56 644.969 -356.56 493.281 -354.732 343.418V-0.660393H-355.541V343.409ZM-308.716 81.4699C-308.029 158.382 -308.029 236.159 -308.716 312.635C-308.757 320.401 -308.636 328.341 -308.514 336.018C-308.434 341.044 -308.352 346.253 -308.32 351.357C-308.248 362.046 -308.336 376.068 -309.647 389.757C-317.946 497.731 -314.839 606.028 -311.839 710.757C-310.448 759.365 -309.008 809.622 -308.716 859.373V941.66H-307.907V859.364C-308.199 809.604 -309.639 759.339 -311.03 710.73C-314.031 606.019 -317.129 497.748 -308.838 389.836C-307.519 376.11 -307.439 362.063 -307.503 351.348C-307.535 346.235 -307.617 341.036 -307.697 336.002C-307.819 328.332 -307.94 320.392 -307.899 312.643C-307.22 236.159 -307.22 158.374 -307.899 81.4612V-0.660393H-308.708V81.4699H-308.716ZM-261.899 47.1366L-261.859 49.4836C-261.689 58.9331 -261.487 69.6471 -261.018 81.3559C-260.104 94.191 -258.947 107.209 -257.84 119.8C-254.134 161.611 -250.3 204.853 -254.653 248.391C-259.417 291.18 -261.035 332.067 -262.531 377.254C-262.878 388.03 -263.356 398.867 -263.954 409.459C-265.83 442.623 -268.872 474.409 -273.256 506.648C-277.632 541.261 -276.071 575.674 -274.567 608.951C-274.397 612.685 -274.226 616.42 -274.065 620.163C-272.851 640.03 -271.46 660.238 -270.118 679.783C-266.089 738.355 -261.924 798.917 -261.899 858.727L-261.916 941.66H-261.107L-261.091 858.727C-261.115 798.89 -265.281 738.302 -269.317 679.721C-270.659 660.186 -272.051 639.979 -273.264 620.12C-273.426 616.386 -273.596 612.651 -273.766 608.917C-275.27 575.674 -276.823 541.305 -272.463 506.779C-268.079 474.523 -265.031 442.702 -263.154 409.519C-262.555 398.918 -262.077 388.074 -261.73 377.297C-260.242 332.127 -258.616 291.267 -253.86 248.505C-249.499 204.87 -253.342 161.584 -257.047 119.73C-258.163 107.139 -259.319 94.1296 -260.226 81.3219C-260.694 69.6296 -260.896 58.9243 -261.066 49.4836L-261.107 47.1454V-0.642955H-261.916V47.1541L-261.899 47.1366ZM-215.083 21.2569C-217.146 58.4264 -207.73 91.6082 -197.757 126.737C-192.531 145.138 -187.137 164.158 -183.465 183.964C-177.001 216.274 -187.015 245.949 -196.69 274.655C-200.313 285.404 -204.059 296.51 -206.913 307.653C-211.791 326.072 -213.013 345.215 -214.202 363.729C-214.59 369.803 -214.994 376.076 -215.512 382.218C-216.159 394.477 -216.895 405.811 -217.752 416.875C-220.163 450.039 -224.029 484.251 -229.57 521.464C-232.813 539.839 -231.988 558.493 -231.195 576.537C-229.432 610.792 -226.771 645.475 -224.199 679.024C-219.701 737.683 -215.042 798.341 -215.091 858.248C-215.091 871.789 -215.091 883.542 -215.091 893.881V941.66H-214.282V893.872C-214.282 883.542 -214.274 871.781 -214.282 858.239C-214.242 798.297 -218.893 737.622 -223.399 678.945C-225.971 645.405 -228.631 610.722 -230.394 576.485C-231.187 558.493 -232.012 539.892 -228.777 521.604C-223.236 484.356 -219.37 450.118 -216.952 416.936C-216.086 405.873 -215.358 394.53 -214.711 382.28C-214.185 376.146 -213.781 369.863 -213.393 363.791C-212.212 345.32 -210.99 326.229 -206.137 307.898C-203.289 296.79 -199.544 285.692 -195.929 274.96C-186.215 246.141 -176.169 216.336 -182.672 183.79C-186.352 163.949 -191.755 144.902 -196.989 126.483C-206.938 91.4338 -216.337 58.3222 -214.282 21.2832V-0.660393H-215.091V21.2569H-215.083ZM-167.983 23.9965C-168.088 51.4643 -159.636 79.2973 -142.156 109.076C-140.903 111.266 -139.633 113.474 -138.346 115.699C-116.176 154.186 -91.0444 197.803 -114.663 243.008C-119.508 252.588 -124.838 262.238 -129.983 271.566C-150.666 309.023 -172.043 347.754 -168.388 393.002C-168.501 401.833 -168.678 409.903 -168.93 417.687C-169.803 445.162 -171.647 469.419 -174.568 491.833C-183.74 565.761 -178.725 639.611 -173.88 711.036C-170.604 759.339 -167.215 809.282 -168.258 858.736L-168.274 941.669H-167.465L-167.449 858.745C-166.406 809.256 -169.795 759.286 -173.079 710.966C-177.924 639.586 -182.931 565.779 -173.775 491.947C-170.854 469.496 -169.011 445.215 -168.129 417.713C-167.878 409.929 -167.708 401.85 -167.595 392.968C-171.234 347.955 -149.913 309.346 -129.304 272.01C-124.151 262.675 -118.821 253.025 -113.968 243.427C-90.1143 197.785 -115.383 153.924 -137.675 115.236C-138.953 113.02 -140.223 110.813 -141.485 108.614C-158.883 78.9749 -167.295 51.2976 -167.191 23.9965C-167.473 8.31782 -167.473 -0.564433 -167.473 -0.651733H-168.282C-168.282 -0.564433 -168.282 8.32659 -168 24.0053L-167.983 23.9965ZM-121.433 17.2175C-121.984 30.1481 -119.71 43.1225 -114.687 55.7745C-108.192 74.8303 -97.1836 93.4759 -86.5391 111.511C-63.9315 149.823 -40.5473 189.435 -58.0592 236.071C-65.2579 255.835 -75.9187 273.991 -86.2236 291.538C-101.236 317.111 -116.766 343.557 -121.013 374.654C-121.79 388.125 -122.145 401.475 -122.476 415.113C-125.591 551.086 -125.251 696.404 -121.433 859.364V941.66H-120.625V859.356C-124.442 696.395 -124.782 551.086 -121.659 415.13C-121.336 401.501 -120.972 388.152 -120.204 374.741C-115.982 343.863 -101.196 318.673 -85.528 292C-75.1988 274.41 -64.5219 256.227 -57.2988 236.385C-39.6333 189.331 -63.1227 149.527 -85.8435 111.031C-96.4638 93.0306 -107.448 74.4289 -113.919 55.4334C-118.901 42.8867 -121.158 30.0352 -120.609 17.2263C-120.617 5.63915 -120.617 -0.669171 -120.617 -0.669171H-121.425C-121.425 -0.669171 -121.425 5.63915 -121.417 17.2087L-121.433 17.2175ZM-74.6246 17.8632C-75.0129 28.639 -73.3547 40.1208 -69.3912 54.0208C-63.4461 72.1861 -55.0907 89.1482 -47.0182 105.551C-35.3221 129.293 -23.2298 153.846 -18.4574 182.202C-12.2535 224.773 -29.6843 260.869 -46.533 295.778C-53.8288 310.881 -61.3674 326.5 -66.9727 342.545C-70.5721 354.184 -74.2606 368.04 -74.4143 382.584C-74.479 388.544 -74.5114 394.513 -74.5518 400.506C-74.5761 404.249 -74.6004 407.993 -74.6327 411.745V502.592C-75.0856 606.919 -75.0857 712.947 -74.6328 817.728V941.66H-73.8239V817.719C-74.2768 712.938 -74.2768 606.919 -73.8239 502.592V411.745C-73.7915 407.993 -73.7672 404.249 -73.7429 400.506C-73.7024 394.513 -73.6701 388.544 -73.6055 382.584C-73.4517 368.154 -69.7795 354.376 -66.2125 342.824C-60.6313 326.848 -53.1009 311.257 -45.8211 296.17C-28.9078 261.14 -11.4203 224.912 -17.6647 182.045C-22.4694 153.549 -34.586 128.935 -46.3145 105.133C-54.3789 88.7556 -62.7182 71.8197 -68.6389 53.7324C-72.57 39.9552 -74.2201 28.5601 -73.8319 17.8719V-0.669171H-74.6408V17.8544L-74.6246 17.8632ZM-27.8079 16.2403C-27.7027 19.3639 -27.6622 22.4611 -27.6298 25.4629C-27.5086 35.418 -27.4034 44.8148 -24.9202 54.8576C-20.9892 71.1825 -15.9904 87.4724 -11.1534 103.213C4.39285 153.862 19.0817 201.703 2.58907 254.412C0.502235 261.025 -1.68975 267.753 -3.81706 274.262C-15.7639 310.856 -28.1152 348.696 -27.8079 387.75V408.307V941.669H-26.999L-26.999 387.75C-27.2982 348.853 -14.9712 311.082 -3.04868 274.558C-0.921383 268.049 1.27064 261.314 3.35751 254.7C19.9391 201.712 5.20981 153.732 -10.385 102.943C-15.2139 87.2114 -20.2127 70.9391 -24.1356 54.6394C-26.5945 44.7018 -26.7078 35.3489 -26.821 25.4541C-26.8533 22.4523 -26.8938 19.3464 -26.999 16.2315V-0.651624H-27.8079V16.249V16.2403ZM19.0089 18.3954C17.8199 50.2952 23.0046 82.2464 28.0197 113.134C30.9396 131.098 33.9567 149.675 35.7361 168.224C40.2092 207.444 34.8949 246.167 29.7586 283.615C27.4696 300.324 25.0915 317.6 23.6032 334.789L23.49 336.342C22.7215 347.029 22.0016 357.134 22.4304 367.682C22.487 380.639 22.4951 391.136 22.4465 400.707C22.2606 440.38 21.1685 482.314 19.0008 532.694V941.66H19.8096V532.719C21.9775 482.34 23.0694 440.398 23.2554 400.716C23.2959 391.145 23.2959 380.648 23.2392 367.664C22.8105 357.151 23.5305 347.073 24.2908 336.411L24.404 334.867C25.8923 317.714 28.2622 300.445 30.5513 283.754C35.6957 246.245 41.018 207.462 36.5369 168.137C34.7574 149.57 31.7404 130.977 28.8204 112.993C23.8136 82.1422 18.6288 50.2426 19.8178 18.4216V-0.651624H19.0089V18.4042V18.3954ZM65.8338 27.2429C65.8338 36.2032 65.8338 47.1366 65.8742 59.7875C66.2544 69.5429 66.6588 79.271 67.0552 89.0001C69.7487 154.587 72.5311 222.4 69.7082 289.435C68.8023 310.942 70.064 330.591 73.4694 347.789C74.5289 356.174 75.6533 364.733 76.7372 373.013L77.2548 376.966C78.4277 385.857 79.7785 396.205 81.0322 406.44C85.303 436.359 78.3549 463.258 71.0023 491.746C70.0317 495.515 69.053 499.302 68.0985 503.115C63.1968 523.697 64.1594 544.246 65.0977 564.122C65.5587 573.859 66.036 583.919 65.8256 593.927V941.66H66.6345L66.6345 593.935C66.8448 583.91 66.3676 573.823 65.9065 564.078C64.9682 544.263 64.0057 523.776 68.875 503.333C69.8295 499.528 70.8082 495.742 71.7788 491.973C79.1557 463.397 86.1198 436.411 81.8248 406.309C80.5711 396.074 79.2122 385.734 78.0475 376.835L77.5299 372.883C76.4379 364.602 75.3136 356.043 74.254 347.631C70.8648 330.47 69.6031 310.907 70.5089 289.469C73.34 222.391 70.5494 154.561 67.856 88.9563C67.4595 79.2359 67.0552 69.4991 66.675 59.7611C66.6345 47.1278 66.6345 36.1945 66.6345 27.2341V-0.669171H65.8257V27.2341L65.8338 27.2429ZM112.65 65.3369C112.65 75.6671 112.65 87.0457 112.666 99.3391C113.273 126.57 113.128 154.29 112.991 181.085C112.78 222.042 112.562 264.385 115.013 306.083C115.546 310.393 116.088 314.694 116.63 318.978C117.569 326.421 118.539 334.125 119.445 341.655C126.19 397.583 131.344 457.194 114.219 517.04C108.752 535.398 110.127 555.134 111.461 574.225C111.914 580.69 112.376 587.365 112.578 593.935C112.642 600.409 112.65 606.822 112.65 613.942V941.66H113.459V613.951C113.459 606.831 113.459 600.409 113.387 593.927C113.185 587.33 112.715 580.639 112.262 574.165C110.871 554.288 109.561 535.511 114.988 517.311C132.16 457.29 126.999 397.575 120.245 341.55C119.34 334.012 118.369 326.316 117.43 318.865C116.889 314.573 116.347 310.279 115.813 305.995C113.371 264.358 113.589 222.024 113.799 181.085C113.937 154.281 114.082 126.561 113.475 99.3215C113.459 87.0457 113.459 75.6671 113.459 65.3282V-0.669171H112.65V65.3282V65.3369ZM159.467 268.608C158.262 295.586 160.114 323.045 161.91 349.595C163.706 376.207 165.558 403.718 164.345 430.774C163.673 445.764 162.67 461.015 161.708 475.77C159.176 514.335 156.564 554.218 159.467 593.918V941.66H160.276V593.892C157.372 554.218 159.985 514.371 162.508 475.84C163.479 461.086 164.474 445.826 165.146 430.827C166.359 403.717 164.506 376.172 162.711 349.534C160.923 323.01 159.071 295.577 160.268 268.625V-0.660393H159.459V268.608H159.467ZM206.284 367.316L206.324 387.812C206.349 407.364 206.163 427.205 205.977 446.401C205.645 481.389 205.297 517.573 206.251 553.285C206.284 560.099 206.284 566.904 206.284 573.684V941.66H207.093V573.684C207.093 566.904 207.093 560.099 207.06 553.276C206.114 517.573 206.453 481.398 206.786 446.41C206.972 427.214 207.158 407.364 207.133 387.812L207.093 367.316V-0.660393H206.284V367.316ZM253.109 941.66H253.918V-0.660393H253.109V941.66ZM299.925 941.66H300.734V-0.660393H299.925V941.66Z" fill="url(#paint1_linear_31208_31504)" fill-opacity="0.4"/>
    </g>
  </g>
  <defs>
    <filter id="filter0_f_31208_31504" x="976.854" y="-293.876" width="1543.15" height="1482.69" filterUnits="userSpaceOnUse" color-interpolation-filters="sRGB">
      <feFlood flood-opacity="0" result="BackgroundImageFix"/>
      <feBlend mode="normal" in="SourceGraphic" in2="BackgroundImageFix" result="shape"/>
      <feGaussianBlur stdDeviation="227" result="effect1_foregroundBlur_31208_31504"/>
    </filter>
    <linearGradient id="paint0_linear_31208_31504" x1="1603.45" y1="472.494" x2="731.079" y2="468.206" gradientUnits="userSpaceOnUse">
      <stop/>
      <stop offset="1" stop-opacity="0"/>
    </linearGradient>
    <linearGradient id="paint1_linear_31208_31504" x1="-494.682" y1="467.961" x2="376.576" y2="472.243" gradientUnits="userSpaceOnUse">
      <stop/>
      <stop offset="1" stop-opacity="0"/>
    </linearGradient>
    <clipPath id="clip0_31208_31504">
      <rect width="1512" height="941" fill="white"/>
    </clipPath>
  </defs>
</svg>
