<?xml version="1.0" encoding="UTF-8"?> <svg xmlns="http://www.w3.org/2000/svg" width="27" height="28" viewBox="0 0 27 28" fill="none"><path d="M16.0238 0.692069C15.8855 0.667211 15.7553 0.758358 15.7309 0.899222L14.0626 10.536H12.8174L11.1491 0.899222C11.1247 0.758358 10.9945 0.667211 10.8562 0.692069C4.93166 1.86041 0.390625 6.99779 0.0162746 13.2787C0.0162746 13.2869 0 13.5521 0 13.6847C0 13.7013 0 13.7178 0 13.7261C0 13.7758 0 13.8255 0 13.8753C0 13.8918 0 13.9084 0 13.9333C0 13.9996 0 14.0576 0 14.1238C0 20.7859 4.67124 26.3293 10.8643 27.5556C11.0026 27.5805 11.1329 27.4893 11.1573 27.3485L12.8256 17.7117H14.0707L15.7309 27.3568C15.7553 27.4976 15.8855 27.5888 16.0238 27.5639C21.9483 26.3873 26.4812 21.2499 26.8637 14.969C26.8637 14.9607 26.88 14.6956 26.88 14.563C26.88 14.5464 26.88 14.5299 26.88 14.5216C26.88 14.4719 26.88 14.4221 26.88 14.3724C26.88 14.3559 26.88 14.3393 26.88 14.3144C26.88 14.2481 26.88 14.1901 26.88 14.1238C26.8881 7.46182 22.2169 1.91841 16.0238 0.692069Z" fill="#FF6C15"></path></svg> 